<svg width="35" height="28" viewBox="0 0 35 28" fill="none" xmlns="http://www.w3.org/2000/svg">
<rect width="35" height="28" fill="#272727"/>
<g id="Home">
<path d="M-5159 -1404H564V-1440H-5159V-1404ZM570 -1398V4254H606V-1398H570ZM564 4260H-5159V4296H564V4260ZM-5165 4254V-1398H-5201V4254H-5165ZM-5159 4260C-5162.31 4260 -5165 4257.31 -5165 4254H-5201C-5201 4277.2 -5182.2 4296 -5159 4296V4260ZM570 4254C570 4257.31 567.313 4260 564 4260V4296C587.196 4296 606 4277.2 606 4254H570ZM564 -1404C567.313 -1404 570 -1401.31 570 -1398H606C606 -1421.2 587.196 -1440 564 -1440V-1404ZM-5159 -1440C-5182.2 -1440 -5201 -1421.2 -5201 -1398H-5165C-5165 -1401.31 -5162.31 -1404 -5159 -1404V-1440Z" fill="white" fill-opacity="0.49"/>
<g id="iPhone SE - 1" clip-path="url(#clip0_1_8)">
<rect width="320" height="3884" transform="translate(-240 -957)" fill="#333539"/>
<g id="Frame 1171275618">
<g id="Frame 1171275613">
<g id="Frame 1171275631">
<g id="Component 23">
<rect id="Rectangle 39250" x="-177.5" y="-43" width="195" height="50" rx="24" fill="#333539"/>
<g id="Frame 1171275617">
<rect x="-209.5" y="-27" width="259" height="288" rx="24" fill="#A9EDEE"/>
<g id="Frame 1171275616">
<g id="Frame 1171275615">
<g id="Frame 1171275614">
<path id="Vector 75" d="M17.5 27L33.5 9.47191M17.5 27L1.5 9.47191M17.5 27L12.463 9.47191M17.5 27L22.537 9.47191M33.5 9.47191H30.8333M33.5 9.47191L27.5741 1M27.5741 1H17.5M27.5741 1L22.537 9.47191M22.537 9.47191L17.5 1M22.537 9.47191H26.9815M22.537 9.47191H12.463M17.5 1H14.8333M17.5 1L12.463 9.47191M12.463 9.47191L7.42593 1M12.463 9.47191H7.42593M7.42593 1H11.2778M7.42593 1L1.5 9.47191M1.5 9.47191H5.64815M13.6481 1H12.463M28.1667 9.47191H29.3519" stroke="#00AAAD" stroke-width="1.5" stroke-linejoin="round"/>
</g>
</g>
</g>
</g>
<g id="Group 1171276071">
<path id="Vector 67" d="M40.501 -24C36.1825 -19.1259 23.8073 -4.71111 35.1893 4" stroke="#333539" stroke-width="2"/>
<path id="Vector 68" fill-rule="evenodd" clip-rule="evenodd" d="M46.6566 -0.289024C47.2955 -0.262405 47.9092 -0.0323289 48.4082 0.36764L63.128 12.1673C64.4319 13.2125 64.6303 15.1217 63.5692 16.4127L56.1422 25.4489C55.0992 26.7179 53.2296 26.9122 51.9479 25.8848L37.2028 14.0649C36.6843 13.6492 36.3185 13.0732 36.1628 12.4273L34.0612 3.70982C33.8406 2.79474 34.0623 1.82917 34.66 1.10197L35.2135 0.428555C35.8112 -0.298652 36.7156 -0.703169 37.6561 -0.663987L46.6566 -0.289024ZM36.8182 4.81049C37.642 5.48748 38.8586 5.36854 39.5357 4.54483C40.2127 3.72112 40.0937 2.50455 39.27 1.82756C38.4462 1.15056 37.2296 1.2695 36.5526 2.09322C35.8755 2.91693 35.9945 4.1335 36.8182 4.81049Z" fill="#FFCB05"/>
</g>
</g>
</g>
</g>
</g>
</g>
</g>
<defs>
<clipPath id="clip0_1_8">
<rect width="320" height="3884" fill="white" transform="translate(-240 -957)"/>
</clipPath>
</defs>
</svg>
